# xmcd
#
# Track frame offsets: 
#        150
#        12213
#        21164
#        32250
#        42173
#        52331
#        62715
#        76194
#        89645
#        106511
#        116500
#        129902
#        142508
#        158568
#        171829
#        184224
#        195167
#        211497
#        227020
#        238569
#
# Disc length: 3337 seconds
#
# Revision: 3
# Processed by: cddbd v1.5.2PL0 Copyright (c) Steve Scherf et al.
# Submitted via: ExactAudioCopyFreeDBPlugin 1.0
#
DISCID=f10d0714
DTITLE=Various Artist - 2008 - Country and Western Favourits
DYEAR=2008
DGENRE=Country
TTITLE0=Kenny Rogers - Me And Bobby Mc Ghee
TTITLE1=Carl Perkins - This Ole House
TTITLE2=Waylon Jennings - Dream Baby
TTITLE3=Hank Locklin - Please Help Me I'm Falling
TTITLE4=Porter Wagoner - Green Green Grass Of Home
TTITLE5=Don Gibson - Lomesome Number One
TTITLE6=George Jones - Almost Persuaded
TTITLE7=Don Williams - Where Do I Go From Here?
TTITLE8=Ferlin Husky - For The Good Times
TTITLE9=Willy Nelson - Broken Promises
TTITLE10=Lynn Anderson - Rose Garden
TTITLE11=Wanda Jackson - Crazy
TTITLE12=Anna Murray - Both Sides Now
TTITLE13=Dottie West - D.I.V.O.R.C.E.
TTITLE14=Patsy Cline - A Poor Man's Roses
TTITLE15=Donna Fargo - Wishful Thinking
TTITLE16=Billy Jo Spears - Blanket On The Ground
TTITLE17=Jo Anna Houston - Always On My Mind
TTITLE18=Dolly Parton - Letter To Heaven
TTITLE19=Skeeter Davis - I Can't Help You (I'm Falling Too)
EXTD=
EXTT0=
EXTT1=
EXTT2=
EXTT3=
EXTT4=
EXTT5=
EXTT6=
EXTT7=
EXTT8=
EXTT9=
EXTT10=
EXTT11=
EXTT12=
EXTT13=
EXTT14=
EXTT15=
EXTT16=
EXTT17=
EXTT18=
EXTT19=
PLAYORDER=
